# xmcd CD database file
#
# Track frame offsets:
#	150
#	24187
#	40105
#	61396
#	82100
#	102182
#	118646
#	137775
#	157994
#	178419
#	197062
#	216578
#	229229
#
# Disc length: 3323 seconds
#
# Revision: 0
# Processed by: cddbd v1.5.2PL0 Copyright (c) Steve Scherf et al.
# Submitted via: CDex 1.51
#
DISCID=b70cf90d
DTITLE=Drew Kennedy - Dollar Theatre Movie
DYEAR=2007
DGENRE=Country
TTITLE0=One to Blame
TTITLE1=Ramblin' Heart
TTITLE2=Goodbye
TTITLE3=Good Things
TTITLE4=Baytown
TTITLE5=I'll Make it Home
TTITLE6=New Me
TTITLE7=Can't Slow Down
TTITLE8=Like a Thief
TTITLE9=The Last Waltz
TTITLE10=Take Me Home
TTITLE11=Tomorrow's Not Tonight
TTITLE12=Second Time Around
EXTD=YEAR: 2007
EXTT0=
EXTT1=
EXTT2=
EXTT3=
EXTT4=
EXTT5=
EXTT6=
EXTT7=
EXTT8=
EXTT9=
EXTT10=
EXTT11=
EXTT12=
PLAYORDER=
